<?xml version="1.0" encoding="UTF-8"?>
<svg xmlns="http://www.w3.org/2000/svg" viewBox="0 0 480 150" width="480" height="150">
  
  
  <text x="208" y="70" text-anchor="end" font-family="Georgia,serif" font-weight="300" font-size="58" letter-spacing="3" fill="#C8A96E">RENT</text>
  <rect x="216" y="24" width="2" height="60" rx="1" fill="#1B2A4A" opacity="0.2"/>
  <text x="228" y="70" font-family="Georgia,serif" font-weight="bold" font-size="58" letter-spacing="3" fill="#1B2A4A">BACK</text>
  <g transform="translate(232,82) scale(0.7)">
    <path d="M4,0 C4,0 5,4 5.5,10 C6,16 6,22 5.8,28 C5.6,32 6,35 8,36 C11,37 14.5,34 17,30 C19,27 20,24 19.5,22 C18.5,19 15,18 12,19.5 C9,21 7,25 6,30" stroke="#C8A96E" stroke-width="2.2" fill="none" stroke-linecap="round" stroke-linejoin="round"/>
    <path d="M26,18 C26,18 27,22 28.5,26 C30,30 31,32 32,32 C33,32 33.5,30 33.5,30" stroke="#C8A96E" stroke-width="2.2" fill="none" stroke-linecap="round"/>
    <path d="M37,18 C37,18 35,24 33,30 C31,36 28.5,42 26.5,44 C25,45.5 23.5,45 23,43 C22.5,41 23,39 24,38" stroke="#C8A96E" stroke-width="2.2" fill="none" stroke-linecap="round" stroke-linejoin="round"/>
  </g>
  <text x="420" y="112" text-anchor="end" font-family="Segoe UI,Helvetica Neue,sans-serif" font-weight="300" font-size="18" letter-spacing="8" fill="#1B2A4A" opacity="0.75">SPILBERK</text>
</svg>